<?xml version="1.0" ?>
<svg xmlns="http://www.w3.org/2000/svg" xmlns:ev="http://www.w3.org/2001/xml-events" xmlns:xlink="http://www.w3.org/1999/xlink" baseProfile="full" height="600px" version="1.1" viewBox="-151.906 -624.306 3375.812 7460.612" width="272px">
	<defs>
		<style type="text/css">
			#黄道 {
				fill: #f5ac27;
				stroke: black;
				stroke-width: 6;
			}
		</style>
	</defs>
		
	<path id="黄道" d="M 1115.0,2380.0 L 915.0,2516.0 L 522.0,2668.0 L 215.0,2757.0 L 236.0,2776.0 L 267.0,2811.0 L 279.0,2833.0 L 586.0,2741.0 L 970.0,2589.0 L 1216.0,2430.0 L 1115.0,2380.0 M 2448.0,1709.0 L 1582.0,1709.0 L 1582.0,1312.0 L 2448.0,1312.0 L 2448.0,1709.0 M 2448.0,2157.0 L 1582.0,2157.0 L 1582.0,1798.0 L 2448.0,1798.0 L 2448.0,2157.0 M 632.0,1798.0 L 1493.0,1798.0 L 1493.0,2157.0 L 632.0,2157.0 L 632.0,1798.0 M 632.0,1312.0 L 1493.0,1312.0 L 1493.0,1709.0 L 632.0,1709.0 L 632.0,1312.0 M 2537.0,1222.0 L 543.0,1222.0 L 543.0,2246.0 L 2537.0,2246.0 L 2537.0,1222.0 M 1880.0,2453.0 L 2236.0,2580.0 L 2586.0,2719.0 L 2798.0,2830.0 L 2881.0,2764.0 L 2651.0,2649.0 L 2291.0,2507.0 L 1944.0,2389.0 L 1880.0,2453.0 M 1078.0,416.0 L 2003.0,416.0 L 2003.0,838.0 L 1078.0,838.0 L 1078.0,416.0 M 2092.0,838.0 L 2092.0,416.0 L 2697.0,416.0 L 2697.0,326.0 L 2092.0,326.0 L 2092.0,0.0 L 2003.0,0.0 L 2003.0,326.0 L 1078.0,326.0 L 1078.0,0.0 L 989.0,0.0 L 989.0,326.0 L 408.0,326.0 L 408.0,416.0 L 989.0,416.0 L 989.0,838.0 L 181.0,838.0 L 181.0,928.0 L 2894.0,928.0 L 2894.0,838.0 L 2092.0,838.0 M 1631.0,3746.0 L 1597.0,3640.0 L 1496.0,3484.0 L 1391.0,3375.0 L 1318.0,3412.0 L 1419.0,3524.0 L 1520.0,3683.0 L 1557.0,3793.0 L 1631.0,3746.0 M 2519.0,4688.0 L 1314.0,4688.0 L 1314.0,4355.0 L 2519.0,4355.0 L 2519.0,4688.0 M 2519.0,5136.0 L 1314.0,5136.0 L 1314.0,4777.0 L 2519.0,4777.0 L 2519.0,5136.0 M 2519.0,5609.0 L 1314.0,5609.0 L 1314.0,5225.0 L 2519.0,5225.0 L 2519.0,5609.0 M 1225.0,4265.0 L 1225.0,5699.0 L 2608.0,5699.0 L 2608.0,4265.0 L 1827.0,4265.0 L 1871.0,4160.0 L 1910.0,4028.0 L 1947.0,3907.0 L 2891.0,3907.0 L 2891.0,3817.0 L 2236.0,3817.0 L 2322.0,3699.0 L 2420.0,3540.0 L 2500.0,3403.0 L 2405.0,3368.0 L 2341.0,3496.0 L 2230.0,3690.0 L 2132.0,3817.0 L 952.0,3817.0 L 952.0,3907.0 L 1846.0,3907.0 L 1815.0,4022.0 L 1772.0,4157.0 L 1738.0,4265.0 L 1225.0,4265.0 M 562.0,3882.0 L 531.0,3755.0 L 463.0,3556.0 L 411.0,3400.0 L 331.0,3418.0 L 380.0,3574.0 L 442.0,3777.0 L 476.0,3907.0 L 562.0,3882.0 M 740.0,4877.0 L 718.0,4883.0 L 408.0,4883.0 L 503.0,4666.0 L 623.0,4368.0 L 712.0,4137.0 L 168.0,4137.0 L 168.0,4227.0 L 583.0,4227.0 L 491.0,4477.0 L 371.0,4771.0 L 273.0,4969.0 L 691.0,4969.0 L 639.0,5221.0 L 546.0,5533.0 L 433.0,5733.0 L 337.0,5775.0 L 245.0,5950.0 L 132.0,6149.0 L 205.0,6212.0 L 307.0,6001.0 L 405.0,5813.0 L 473.0,5813.0 L 549.0,5813.0 L 666.0,5928.0 L 789.0,6007.0 L 1019.0,6152.0 L 1299.0,6185.0 L 1702.0,6185.0 L 2076.0,6185.0 L 2703.0,6167.0 L 2909.0,6155.0 L 2912.0,6124.0 L 2924.0,6077.0 L 2940.0,6055.0 L 2592.0,6077.0 L 2141.0,6103.0 L 1702.0,6103.0 L 1330.0,6103.0 L 1063.0,6077.0 L 838.0,5937.0 L 682.0,5838.0 L 605.0,5762.0 L 528.0,5737.0 L 642.0,5511.0 L 737.0,5176.0 L 801.0,4905.0 L 740.0,4877.0"/>
</svg>
